<svg id="Capa_1" enable-background="new 0 0 512 512" height="512" viewBox="0 0 512 512" width="512" xmlns="http://www.w3.org/2000/svg"><path d="m91 0v512h330v-512z" fill="#f2ebee"/><path d="m256 0h165v512h-165z" fill="#e8dde3"/><path d="m151 60v152h210v-152z" fill="#76e2f8"/><path d="m256 60h105v152h-105z" fill="#4bb9ec"/><path d="m151 242v210h210v-210z" fill="#6c6fa9"/><path d="m256 242h105v210h-105z" fill="#574f7f"/><path d="m301 332h30v90h-30z" fill="#ff5e39"/><path d="m301 272h30v30h-30z" fill="#4bb9ec"/><g fill="#f2ebee"><path d="m241 272h30v30h-30z"/><path d="m241 332h30v30h-30z"/><path d="m241 392h30v30h-30z"/><path d="m181 392h30v30h-30z"/><path d="m181 332h30v30h-30z"/><path d="m181 272h30v30h-30z"/></g><path d="m256 272h15v30h-15z" fill="#e8dde3"/><path d="m256 332h15v30h-15z" fill="#e8dde3"/><path d="m256 392h15v30h-15z" fill="#e8dde3"/></svg>