<svg id="Capa_1" enable-background="new 0 0 512 512" height="512" viewBox="0 0 512 512" width="512" xmlns="http://www.w3.org/2000/svg"><path d="m256 247-225 10v180l225 17.53 225-17.53v-180z" fill="#ffda2d"/><path d="m481 257v180l-225 17.53v-207.53z" fill="#fdbf00"/><path d="m31 437h450v75h-450z" fill="#fdbf00"/><path d="m256 437h225v75h-225z" fill="#ff9100"/><path d="m481 152v105h-450v-257h204.41l20.59 62 150 90z" fill="#fdbf00"/><path d="m481 152v105h-225v-195l150 90z" fill="#ff9100"/><path d="m121 302v90h270v-90z" fill="#f2ebee"/><path d="m256 302h135v90h-135z" fill="#e8dde3"/><path d="m421 62v195h-330v-90l88.5-16.5 16.5-88.5z" fill="#f2ebee"/><g fill="#e8dde3"><path d="m256 62h165v195h-165z"/><path d="m196 62-105 105h105z"/></g></svg>