<svg id="Capa_1" enable-background="new 0 0 512 512" height="512" viewBox="0 0 512 512" width="512" xmlns="http://www.w3.org/2000/svg"><path d="m211 331.368v-48.54l-5.73-71.46h-174.27v210h436c24.81 0 45-20.19 45-45v-45z" fill="#6c6fa9"/><path d="m512 331.368v45c0 24.81-20.19 45-45 45h-211v-90z" fill="#574f7f"/><path d="m171.73 211.368 39.27 90h270v-90z" fill="#e8dde3"/><path d="m256 211.368h225v90h-225z" fill="#e2d0da"/><path d="m121 361.368c-24.813 0-45-20.187-45-45s20.187-45 45-45 45 20.187 45 45-20.187 45-45 45z" fill="#e8dde3"/><path d="m427.28 97.648c-16.71-5.57-56.89-9.76-119.54-4.83-16.55 1.3-33.8 3.14-51.74 5.52-71.35 9.48-153.53 27.44-245.12 53.61l-10.88 3.11v86.31h512v-27.57c0-53.14-35.09-99.6-84.72-116.15z" fill="#76e2f8"/><path d="m512 213.798v27.57h-256v-143.03c17.94-2.38 35.19-4.22 51.74-5.52 62.65-4.93 102.83-.74 119.54 4.83 49.63 16.55 84.72 63.01 84.72 116.15z" fill="#4bb9ec"/></svg>